# xmcd
#
# Track frame offsets:
#	150
#	18840
#	32695
#	48500
#	64554
#	77807
#	98882
#	115292
#	133434
#	150019
#	168709
#	182564
#	198369
#	214423
#	227676
#	248751
#	265161
#	283303
#
# Disc length: 3998 seconds
#
# Revision: 1
# Processed by: cddbd v1.5.2PL0 Copyright (c) Steve Scherf et al.
# Submitted via: audiograbber 1.83.01
#
DISCID=fb0f9c12
DTITLE=Various Artist - 20903-5
DYEAR=2009
DGENRE=Country
TTITLE0=John Rich - Shuttin' Detroit Down
TTITLE1=Alan Jackson - Sissy's Song
TTITLE2=Zack Brown Band - Whatever It Is
TTITLE3=Bomshel - Fight Like A Girl
TTITLE4=Randy Houser - Boots On
TTITLE5=Jamey Johnson - High Cost Of Living
TTITLE6=Chris Young - Gettin' You Home (The Black Dress Song)
TTITLE7=Jessica Harp - Boy Like Me
TTITLE8=Trailer Choir - What Would You Say
TTITLE9=John Rich - Shuttin' Detroit Down - vocal
TTITLE10=Alan Jackson - Sissy's Song - vocal
TTITLE11=Zack Brown Band - Whatever it Is - vocal
TTITLE12=Bomshel - Fight Like A Girl - vocal
TTITLE13=Randy Houser - Boots On - vocal
TTITLE14=Jamey Johnson - High Cost Of Living - vocal
TTITLE15=Chris Young - Gettin' You Home - vocal
TTITLE16=Jessica Harp - Boy Like Me - vocal
TTITLE17=Trailer Choir - What Would You Say - vocal
EXTD=
EXTT0=
EXTT1=
EXTT2=
EXTT3=
EXTT4=
EXTT5=
EXTT6=
EXTT7=
EXTT8=
EXTT9=
EXTT10=
EXTT11=
EXTT12=
EXTT13=
EXTT14=
EXTT15=
EXTT16=
EXTT17=
PLAYORDER=
